<svg width="152" height="50" viewBox="0 0 152 50" fill="none" xmlns="http://www.w3.org/2000/svg">
<mask id="mask0_6259_3478" style="mask-type:luminance" maskUnits="userSpaceOnUse" x="0" y="0" width="152" height="50">
<path d="M152 0H0V50H152V0Z" fill="white"/>
</mask>
<g mask="url(#mask0_6259_3478)">
<mask id="mask1_6259_3478" style="mask-type:luminance" maskUnits="userSpaceOnUse" x="112" y="5" width="37" height="35">
<path d="M112.788 22.9854C113.041 31.7848 120.251 39.145 129.274 39.7617C132.015 39.9673 134.629 39.515 137.032 38.6104C137.58 38.4048 137.707 37.6647 137.285 37.2946L132.141 32.8127C131.93 32.6071 131.635 32.5249 131.34 32.566C129.611 32.6894 127.798 32.4427 125.901 31.4969C122.696 29.8933 120.504 26.8094 120.209 23.3144C119.703 17.0233 125.058 11.8423 131.509 12.418C136.4 12.8703 140.363 16.6943 140.827 21.464C141.291 26.0282 138.634 30.0167 134.755 31.7025L140.574 36.7601C145.591 33.3884 148.754 27.5907 148.248 21.1351C147.573 12.7469 140.616 5.92128 132.015 5.22227C131.509 5.18115 131.045 5.18115 130.539 5.18115C120.588 5.18115 112.535 13.1992 112.788 22.9854Z" fill="white"/>
</mask>
<g mask="url(#mask1_6259_3478)">
<path d="M109.879 39.762L112.746 2.5498L151.41 5.38698L148.543 42.5991L109.879 39.762Z" fill="url(#paint0_linear_6259_3478)"/>
</g>
</g>
<mask id="mask2_6259_3478" style="mask-type:luminance" maskUnits="userSpaceOnUse" x="0" y="0" width="152" height="50">
<path d="M152 0H0V50H152V0Z" fill="white"/>
</mask>
<g mask="url(#mask2_6259_3478)">
<mask id="mask3_6259_3478" style="mask-type:luminance" maskUnits="userSpaceOnUse" x="49" y="-5" width="134" height="149">
<path d="M141.428 -4.54795L49.873 114.105L90.6512 143.984L182.206 25.3304L141.428 -4.54795Z" fill="white"/>
</mask>
<g mask="url(#mask3_6259_3478)">
<path d="M137.871 3.17083L135.807 5.84668L146.006 13.3208L148.071 10.6449L137.871 3.17083Z" fill="#0825F7"/>
</g>
<mask id="mask4_6259_3478" style="mask-type:luminance" maskUnits="userSpaceOnUse" x="0" y="0" width="152" height="50">
<path d="M152 0H0V50H152V0Z" fill="white"/>
</mask>
<g mask="url(#mask4_6259_3478)">
<path d="M146.012 13.3223C146.645 12.4999 144.874 10.1973 142.049 8.10025C139.224 6.04433 136.441 5.01637 135.809 5.79762C135.176 6.61999 136.947 8.92262 139.772 11.0197C142.597 13.1167 145.422 14.1447 146.012 13.3223Z" fill="#0825F7"/>
</g>
</g>
<mask id="mask5_6259_3478" style="mask-type:luminance" maskUnits="userSpaceOnUse" x="0" y="0" width="152" height="50">
<path d="M152 0H0V50H152V0Z" fill="white"/>
</mask>
<g mask="url(#mask5_6259_3478)">
<mask id="mask6_6259_3478" style="mask-type:luminance" maskUnits="userSpaceOnUse" x="134" y="0" width="18" height="13">
<path d="M135.008 0.246711L140.953 9.33388C140.995 9.41612 141.079 9.49835 141.206 9.49835L151.789 12.5411C151.915 12.5822 152 12.5 152 12.3766C152 12.3355 152 12.3355 151.957 12.2944L145.928 3.28947C145.886 3.20724 145.801 3.16612 145.717 3.125L135.176 0H135.134C135.008 0 134.923 0.123355 135.008 0.246711Z" fill="white"/>
</mask>
<g mask="url(#mask6_6259_3478)">
<path d="M151.999 0H134.923V12.5822H151.999V0Z" fill="url(#paint1_linear_6259_3478)"/>
</g>
</g>
<mask id="mask7_6259_3478" style="mask-type:luminance" maskUnits="userSpaceOnUse" x="0" y="0" width="152" height="50">
<path d="M152 0H0V50H152V0Z" fill="white"/>
</mask>
<g mask="url(#mask7_6259_3478)">
<mask id="mask8_6259_3478" style="mask-type:luminance" maskUnits="userSpaceOnUse" x="0" y="0" width="152" height="50">
<path d="M152 0H0V50H152V0Z" fill="white"/>
</mask>
<g mask="url(#mask8_6259_3478)">
<mask id="mask9_6259_3478" style="mask-type:luminance" maskUnits="userSpaceOnUse" x="131" y="23" width="19" height="18">
<path d="M149.934 23.3965H131.509V40.5017H149.934V23.3965Z" fill="white"/>
</mask>
<g mask="url(#mask9_6259_3478)">
<mask id="mask10_6259_3478" style="mask-type:luminance" maskUnits="userSpaceOnUse" x="131" y="23" width="19" height="18">
<path d="M149.724 34.8683L136.779 23.5608C136.526 23.3141 136.105 23.3552 135.852 23.6019L131.72 28.1249C131.467 28.3716 131.509 28.7828 131.762 29.0295L144.706 40.3371C144.959 40.5838 145.381 40.5427 145.634 40.296L149.766 35.7729C150.019 35.4851 149.977 35.115 149.724 34.8683Z" fill="white"/>
</mask>
<g mask="url(#mask10_6259_3478)">
<path d="M150.019 23.314H131.425V40.5837H150.019V23.314Z" fill="url(#paint2_linear_6259_3478)"/>
</g>
</g>
</g>
<mask id="mask11_6259_3478" style="mask-type:luminance" maskUnits="userSpaceOnUse" x="0" y="0" width="152" height="50">
<path d="M152 0H0V50H152V0Z" fill="white"/>
</mask>
<g mask="url(#mask11_6259_3478)">
<path d="M13.1551 13.6514C5.90291 13.6514 0 19.4079 0 26.4803C0 33.5527 5.90291 39.3093 13.1551 39.3093C20.4072 39.3093 26.3101 33.5527 26.3101 26.4803C26.3101 19.4079 20.4072 13.6514 13.1551 13.6514ZM13.1551 32.607C9.65548 32.607 6.87268 29.852 6.87268 26.4803C6.87268 23.0675 9.69764 20.3537 13.1551 20.3537C16.6546 20.3537 19.4374 23.1086 19.4374 26.4803C19.4796 29.852 16.6546 32.607 13.1551 32.607Z" fill="#0055FF"/>
</g>
<mask id="mask12_6259_3478" style="mask-type:luminance" maskUnits="userSpaceOnUse" x="0" y="0" width="152" height="50">
<path d="M152 0H0V50H152V0Z" fill="white"/>
</mask>
<g mask="url(#mask12_6259_3478)">
<path d="M109.794 23.5609C109.794 18.0922 105.24 13.6514 99.6327 13.6514C96.9764 13.6514 94.5731 14.6382 92.76 16.2829V15.0905C92.76 14.556 92.2962 14.1037 91.7481 14.1037H86.9836C86.4355 14.1037 85.9717 14.556 85.9717 15.0905V37.5412C85.9717 38.0757 86.4355 38.528 86.9836 38.528H91.7481C92.2962 38.528 92.76 38.0757 92.76 37.5412V24.4655C92.9709 21.8339 95.1634 19.778 97.8197 19.778C100.518 19.778 102.711 21.8339 102.879 24.4655V37.5412C102.879 38.0757 103.343 38.528 103.891 38.528H108.698C109.246 38.528 109.71 38.0757 109.71 37.5412V23.6431C109.794 23.6431 109.794 23.602 109.794 23.5609Z" fill="#0055FF"/>
</g>
<mask id="mask13_6259_3478" style="mask-type:luminance" maskUnits="userSpaceOnUse" x="0" y="0" width="152" height="50">
<path d="M152 0H0V50H152V0Z" fill="white"/>
</mask>
<g mask="url(#mask13_6259_3478)">
<path d="M43.3865 13.6514C40.0977 13.6514 37.1463 14.8849 34.9116 16.9408V15.0905C34.9116 14.556 34.4478 14.1037 33.8997 14.1037H29.8098C29.2616 14.1037 28.7979 14.556 28.7979 15.0905V49.0132C28.7979 49.5477 29.2616 50 29.8098 50H33.8997C34.4478 50 34.9116 49.5477 34.9116 49.0132V35.8142C37.1463 37.829 40.1399 39.1037 43.3865 39.1037C50.3856 39.1037 56.0777 33.3882 56.0777 26.357C56.1199 19.3257 50.4278 13.6514 43.3865 13.6514ZM42.754 32.6892C39.2544 32.6892 36.4716 29.852 36.4716 26.357C36.4716 22.8619 39.2966 20.0247 42.754 20.0247C46.2114 20.0247 49.0364 22.8619 49.0364 26.357C49.0364 29.852 46.2536 32.6892 42.754 32.6892Z" fill="#0055FF"/>
</g>
<mask id="mask14_6259_3478" style="mask-type:luminance" maskUnits="userSpaceOnUse" x="0" y="0" width="152" height="50">
<path d="M152 0H0V50H152V0Z" fill="white"/>
</mask>
<g mask="url(#mask14_6259_3478)">
<path d="M40.4346 45.1479C39.507 45.1479 38.748 45.8881 38.748 46.7927C38.748 47.6973 39.507 48.4374 40.4346 48.4374C41.3622 48.4374 42.1211 47.6973 42.1211 46.7927C42.1211 45.8881 41.3622 45.1479 40.4346 45.1479ZM40.4346 47.6562C39.9286 47.6562 39.507 47.245 39.507 46.7516C39.507 46.2581 39.9286 45.847 40.4346 45.847C40.9406 45.847 41.3622 46.2581 41.3622 46.7516C41.32 47.245 40.9406 47.6562 40.4346 47.6562Z" fill="#0055FF"/>
</g>
<mask id="mask15_6259_3478" style="mask-type:luminance" maskUnits="userSpaceOnUse" x="0" y="0" width="152" height="50">
<path d="M152 0H0V50H152V0Z" fill="white"/>
</mask>
<g mask="url(#mask15_6259_3478)">
<path d="M50.09 44.5312C48.7408 44.5312 47.6445 45.6003 47.6445 46.9161C47.6445 48.2319 48.7408 49.301 50.09 49.301C51.4393 49.301 52.5355 48.2319 52.5355 46.9161C52.5355 45.6003 51.4393 44.5312 50.09 44.5312ZM50.09 48.1908C49.3732 48.1908 48.7829 47.6151 48.7829 46.9161C48.7829 46.2171 49.3732 45.6414 50.09 45.6414C50.8068 45.6414 51.3971 46.2171 51.3971 46.9161C51.3971 47.6151 50.849 48.1908 50.09 48.1908Z" fill="#0055FF"/>
</g>
<mask id="mask16_6259_3478" style="mask-type:luminance" maskUnits="userSpaceOnUse" x="0" y="0" width="152" height="50">
<path d="M152 0H0V50H152V0Z" fill="white"/>
</mask>
<g mask="url(#mask16_6259_3478)">
<path d="M46.7176 44.0791H45.79V49.5067C45.79 49.6301 45.8744 49.7123 46.0009 49.7123H46.6755C46.802 49.7123 46.8863 49.6301 46.8863 49.5067V44.2847C46.9285 44.2025 46.8441 44.0791 46.7176 44.0791Z" fill="#065AF7"/>
</g>
<mask id="mask17_6259_3478" style="mask-type:luminance" maskUnits="userSpaceOnUse" x="0" y="0" width="152" height="50">
<path d="M152 0H0V50H152V0Z" fill="white"/>
</mask>
<g mask="url(#mask17_6259_3478)">
<path d="M45.7898 44.0791H44.7779C44.6935 44.0791 44.6514 44.1202 44.6514 44.2025V44.8604C44.6514 44.9426 44.6935 44.9837 44.7779 44.9837H45.7898V44.0791Z" fill="#065AF7"/>
</g>
<mask id="mask18_6259_3478" style="mask-type:luminance" maskUnits="userSpaceOnUse" x="0" y="0" width="152" height="50">
<path d="M152 0H0V50H152V0Z" fill="white"/>
</mask>
<g mask="url(#mask18_6259_3478)">
<path d="M54.8124 44.0791H53.8848V49.5067C53.8848 49.6301 53.9691 49.7123 54.0956 49.7123H54.7702C54.8967 49.7123 54.981 49.6301 54.981 49.5067V44.2847C55.0653 44.2025 54.9389 44.0791 54.8124 44.0791Z" fill="#065AF7"/>
</g>
<mask id="mask19_6259_3478" style="mask-type:luminance" maskUnits="userSpaceOnUse" x="0" y="0" width="152" height="50">
<path d="M152 0H0V50H152V0Z" fill="white"/>
</mask>
<g mask="url(#mask19_6259_3478)">
<path d="M53.9275 44.0791H52.9156C52.8312 44.0791 52.7891 44.1202 52.7891 44.2025V44.8604C52.7891 44.9426 52.8312 44.9837 52.9156 44.9837H53.9275V44.0791Z" fill="#065AF7"/>
</g>
<mask id="mask20_6259_3478" style="mask-type:luminance" maskUnits="userSpaceOnUse" x="0" y="0" width="152" height="50">
<path d="M152 0H0V50H152V0Z" fill="white"/>
</mask>
<g mask="url(#mask20_6259_3478)">
<path d="M42.248 48.5195H41.8264C41.6577 48.5195 41.5312 48.3962 41.5312 48.2317V46.957H42.248V48.5195Z" fill="#065AF7"/>
</g>
<mask id="mask21_6259_3478" style="mask-type:luminance" maskUnits="userSpaceOnUse" x="0" y="0" width="152" height="50">
<path d="M152 0H0V50H152V0Z" fill="white"/>
</mask>
<g mask="url(#mask21_6259_3478)">
<path d="M43.5554 45.0247C43.2602 44.5313 42.8807 44.1612 42.3748 43.9145C41.8688 43.6678 41.3207 43.5444 40.6882 43.5444C40.0136 43.5444 39.4233 43.6678 38.8752 43.9556C38.3271 44.2434 37.9476 44.6135 37.6103 45.1069C37.3151 45.6004 37.1465 46.176 37.1465 46.7928C37.1465 47.4096 37.273 47.9852 37.5681 48.4786C37.8633 48.9721 38.2427 49.3421 38.7909 49.63C39.2968 49.9178 39.8871 50.0411 40.5617 50.0411C40.9412 50.0411 41.2785 50 41.6158 49.9178C41.9531 49.8356 42.2061 49.7122 42.4169 49.5477L41.9953 48.8898C41.6158 49.1365 41.1099 49.2599 40.5617 49.2599C40.0558 49.2599 39.6341 49.1777 39.2547 48.9721C38.8752 48.7665 38.58 48.4786 38.3692 48.1086C38.1584 47.7385 38.0319 47.3273 38.0319 46.8339C38.0319 46.3405 38.1584 45.9293 38.3692 45.5592C38.58 45.1892 38.9174 44.9013 39.2968 44.6957C39.6763 44.4902 40.1401 44.3668 40.6461 44.3668C41.1099 44.3668 41.5315 44.449 41.911 44.6546C42.2905 44.8602 42.5434 45.1069 42.7543 45.477C42.9651 45.8471 43.0494 46.2582 43.0494 46.7928C43.0494 47.0806 43.0072 47.3273 42.9229 47.4918C42.8386 47.6563 42.7121 47.7796 42.5434 47.7796C42.4169 47.7796 42.3326 47.7385 42.2905 47.6563C42.2483 47.6152 42.2483 47.574 42.2061 47.4918V48.5609C42.2904 48.5609 42.4169 48.602 42.5013 48.602C43.0072 48.602 43.3445 48.4375 43.5975 48.1086C43.8505 47.7796 43.9348 47.3273 43.9348 46.7517C43.977 46.0527 43.8083 45.5181 43.5554 45.0247Z" fill="#065AF7"/>
</g>
<mask id="mask22_6259_3478" style="mask-type:luminance" maskUnits="userSpaceOnUse" x="0" y="0" width="152" height="50">
<path d="M152 0H0V50H152V0Z" fill="white"/>
</mask>
<g mask="url(#mask22_6259_3478)">
<path d="M41.6156 47.4095H42.1637C42.2059 47.4095 42.248 47.3683 42.248 47.3272V45.2302C42.248 45.1891 42.2059 45.1479 42.1637 45.1479H41.6156C41.5734 45.1479 41.5312 45.1891 41.5312 45.2302V47.3272C41.5312 47.3683 41.5734 47.4095 41.6156 47.4095Z" fill="#065AF7"/>
</g>
<mask id="mask23_6259_3478" style="mask-type:luminance" maskUnits="userSpaceOnUse" x="0" y="0" width="152" height="50">
<path d="M152 0H0V50H152V0Z" fill="white"/>
</mask>
<g mask="url(#mask23_6259_3478)">
<path d="M58.7344 22.9438C58.7765 22.6971 58.8609 22.4093 58.9452 22.1626C58.8609 22.4504 58.7765 22.6971 58.7344 22.9438Z" fill="#0055FF"/>
</g>
<mask id="mask24_6259_3478" style="mask-type:luminance" maskUnits="userSpaceOnUse" x="0" y="0" width="152" height="50">
<path d="M152 0H0V50H152V0Z" fill="white"/>
</mask>
<g mask="url(#mask24_6259_3478)">
<path d="M59.0293 21.9159C59.1558 21.587 59.2823 21.2992 59.4088 20.9702C59.2401 21.2992 59.1136 21.587 59.0293 21.9159Z" fill="#0055FF"/>
</g>
<mask id="mask25_6259_3478" style="mask-type:luminance" maskUnits="userSpaceOnUse" x="0" y="0" width="152" height="50">
<path d="M152 0H0V50H152V0Z" fill="white"/>
</mask>
<g mask="url(#mask25_6259_3478)">
<path d="M58.5234 24.0132C58.5656 23.8076 58.6078 23.6431 58.6078 23.4375C58.6078 23.6431 58.5656 23.8487 58.5234 24.0132Z" fill="#0055FF"/>
</g>
<mask id="mask26_6259_3478" style="mask-type:luminance" maskUnits="userSpaceOnUse" x="0" y="0" width="152" height="50">
<path d="M152 0H0V50H152V0Z" fill="white"/>
</mask>
<g mask="url(#mask26_6259_3478)">
<path d="M59.4512 20.8881C60.0836 19.5311 60.9691 18.2976 62.0653 17.2285C60.9269 18.2976 60.0415 19.5723 59.4512 20.8881Z" fill="#0055FF"/>
</g>
<mask id="mask27_6259_3478" style="mask-type:luminance" maskUnits="userSpaceOnUse" x="0" y="0" width="152" height="50">
<path d="M152 0H0V50H152V0Z" fill="white"/>
</mask>
<g mask="url(#mask27_6259_3478)">
<path d="M68.2207 13.9392C68.3894 13.8981 68.558 13.8981 68.6845 13.8569C68.558 13.8569 68.3894 13.8981 68.2207 13.9392Z" fill="#0055FF"/>
</g>
<mask id="mask28_6259_3478" style="mask-type:luminance" maskUnits="userSpaceOnUse" x="0" y="0" width="152" height="50">
<path d="M152 0H0V50H152V0Z" fill="white"/>
</mask>
<g mask="url(#mask28_6259_3478)">
<path d="M69.3594 13.7335C69.4859 13.7335 69.6124 13.6924 69.7388 13.6924C69.6545 13.6924 69.4859 13.6924 69.3594 13.7335Z" fill="#0055FF"/>
</g>
<mask id="mask29_6259_3478" style="mask-type:luminance" maskUnits="userSpaceOnUse" x="0" y="0" width="152" height="50">
<path d="M152 0H0V50H152V0Z" fill="white"/>
</mask>
<g mask="url(#mask29_6259_3478)">
<path d="M73.6174 13.9391C72.0573 13.6101 70.5394 13.569 69.1059 13.7746H69.0637C68.4734 13.8568 67.9253 13.9802 67.335 14.1447C65.3112 14.7614 63.4981 15.8305 62.0224 17.2285C59.8299 19.4078 58.4385 22.4095 58.4385 25.6989C58.4385 26.2335 58.4385 26.8091 58.4385 26.8091C58.4385 28.6183 58.7336 30.3864 59.4926 32.0312C61.5586 36.5131 66.1544 39.597 71.5092 39.597C75.9786 39.597 79.8998 37.4177 82.2609 34.1282C82.5983 33.6348 82.4296 32.9358 81.8815 32.6479C80.6587 32.0312 78.5505 30.9621 77.4543 30.3864C77.0326 30.1808 76.4845 30.2631 76.1894 30.6331C75.051 31.9489 73.4066 32.8535 71.5092 32.8535C67.9675 32.8535 65.9014 30.2631 65.5641 28.166H81.8815C82.6404 28.166 83.2729 27.5493 83.2729 26.8091V25.9456C83.315 20.3535 79.3517 15.2137 73.6174 13.9391ZM76.7375 23.7664H65.6485C66.3231 21.0526 68.5578 19.0377 71.2141 19.0377H71.2562C73.8704 19.0789 76.0629 21.0114 76.7375 23.6841V23.7664Z" fill="#0055FF"/>
</g>
</g>
<defs>
<linearGradient id="paint0_linear_6259_3478" x1="129.49" y1="37.6788" x2="131.343" y2="12.3011" gradientUnits="userSpaceOnUse">
<stop stop-color="#00DCFF"/>
<stop offset="0.2891" stop-color="#00A5FF"/>
<stop offset="0.5576" stop-color="#007AFF"/>
<stop offset="0.7657" stop-color="#005FFF"/>
<stop offset="0.8883" stop-color="#0055FF"/>
<stop offset="1" stop-color="#0055FF"/>
</linearGradient>
<linearGradient id="paint1_linear_6259_3478" x1="134.972" y1="6.29108" x2="151.983" y2="6.29108" gradientUnits="userSpaceOnUse">
<stop stop-color="#2CEDCA"/>
<stop offset="1" stop-color="#10A8FF"/>
</linearGradient>
<linearGradient id="paint2_linear_6259_3478" x1="131.51" y1="31.9567" x2="149.94" y2="31.9567" gradientUnits="userSpaceOnUse">
<stop stop-color="#2CEDCA"/>
<stop offset="1" stop-color="#10A8FF"/>
</linearGradient>
</defs>
</svg>
